<svg width="25" height="25" viewBox="0 0 25 25" fill="none" xmlns="http://www.w3.org/2000/svg">
<path fill-rule="evenodd" clip-rule="evenodd" d="M12.4987 0C5.5963 0 0 5.5963 0 12.5008C0 18.0232 3.58124 22.7082 8.54868 24.3618C9.1739 24.4762 9.40172 24.0903 9.40172 23.7584C9.40172 23.4624 9.39132 22.676 9.38508 21.6331C5.90787 22.3883 5.17446 19.9571 5.17446 19.9571C4.60593 18.5137 3.78618 18.1293 3.78618 18.1293C2.65121 17.3533 3.872 17.3689 3.872 17.3689C5.12661 17.4578 5.78668 18.6573 5.78668 18.6573C6.90188 20.5673 8.71252 20.0154 9.42461 19.696C9.53852 18.8882 9.8605 18.3374 10.2184 18.0248C7.44284 17.7096 4.52427 16.6365 4.52427 11.847C4.52427 10.4826 5.01165 9.36635 5.81112 8.4925C5.68265 8.17625 5.25352 6.90552 5.93336 5.18434C5.93336 5.18434 6.98302 4.84832 9.37103 6.46599C10.3682 6.18875 11.4376 6.04987 12.5003 6.04519C13.5619 6.04987 14.6313 6.18875 15.63 6.46599C18.0165 4.84832 19.064 5.18434 19.064 5.18434C19.746 6.90552 19.3168 8.17625 19.1884 8.4925C19.9894 9.36635 20.4737 10.4826 20.4737 11.847C20.4737 16.649 17.5504 17.7054 14.7655 18.0149C15.2149 18.4008 15.6144 19.1634 15.6144 20.3301C15.6144 22.0008 15.5993 23.349 15.5993 23.7584C15.5993 24.0934 15.824 24.4825 16.4586 24.3602C21.4219 22.7035 25 18.0217 25 12.5008C25 5.5963 19.4032 0 12.4987 0" fill="#343F56"/>
</svg>
